<svg width="24" height="24" viewBox="0 0 24 24" fill="none" xmlns="http://www.w3.org/2000/svg">
<path d="M10.3125 5.625L9.71875 6.5H14.25L13.6562 5.625C13.625 5.5625 13.5312 5.5 13.4375 5.5H10.5312C10.4375 5.5 10.3438 5.5625 10.3125 5.625ZM14.9062 4.78125L16.0625 6.5H16.5H18H18.25C18.6562 6.5 19 6.84375 19 7.25C19 7.6875 18.6562 8 18.25 8H18V17.5C18 18.9062 16.875 20 15.5 20H8.5C7.09375 20 6 18.9062 6 17.5V8H5.75C5.3125 8 5 7.6875 5 7.25C5 6.84375 5.3125 6.5 5.75 6.5H6H7.5H7.90625L9.0625 4.78125C9.375 4.3125 9.9375 4 10.5312 4H13.4375C14.0312 4 14.5938 4.3125 14.9062 4.78125ZM7.5 8V17.5C7.5 18.0625 7.9375 18.5 8.5 18.5H15.5C16.0312 18.5 16.5 18.0625 16.5 17.5V8H7.5ZM10 10V16.5C10 16.7812 9.75 17 9.5 17C9.21875 17 9 16.7812 9 16.5V10C9 9.75 9.21875 9.5 9.5 9.5C9.75 9.5 10 9.75 10 10ZM12.5 10V16.5C12.5 16.7812 12.25 17 12 17C11.7188 17 11.5 16.7812 11.5 16.5V10C11.5 9.75 11.7188 9.5 12 9.5C12.25 9.5 12.5 9.75 12.5 10ZM15 10V16.5C15 16.7812 14.75 17 14.5 17C14.2188 17 14 16.7812 14 16.5V10C14 9.75 14.2188 9.5 14.5 9.5C14.75 9.5 15 9.75 15 10Z" fill="#313237"/>
</svg>
