<svg width="24" height="24" viewBox="0 0 24 24" fill="none" xmlns="http://www.w3.org/2000/svg">
<path d="M15.5 19.5V21.0625C15.5 21.6094 15.0703 22 14.5625 22H3.9375C3.39062 22 3 21.6094 3 21.0625V6.6875C3 6.17969 3.39062 5.75 3.9375 5.75H6.75V17.3125C6.75 18.5234 7.72656 19.5 8.9375 19.5H15.5ZM15.5 6.0625C15.5 6.60938 15.8906 7 16.4375 7H20.5V17.3125C20.5 17.8594 20.0703 18.25 19.5625 18.25H8.9375C8.39062 18.25 8 17.8594 8 17.3125V2.9375C8 2.42969 8.39062 2 8.9375 2H15.5V6.0625ZM20.1875 4.85156C20.3828 5.04688 20.5 5.28125 20.5 5.51562V5.75H16.75V2H16.9844C17.2188 2 17.4531 2.11719 17.6484 2.3125L20.1875 4.85156Z" fill="#313237"/>
</svg>
