<svg width="24" height="24" viewBox="0 0 24 24" fill="none" xmlns="http://www.w3.org/2000/svg">
<path d="M19.9141 4.57812C20.2656 4.92969 20.5 5.39844 20.5 5.90625V16.375C20.5 17.4297 19.6406 18.25 18.625 18.25H15.5V20.125C15.5 21.1797 14.6406 22 13.625 22H4.875C3.82031 22 3 21.1797 3 20.125V7.625C3 6.60938 3.82031 5.75 4.875 5.75H8V3.875C8 2.85938 8.82031 2 9.875 2H16.5938C17.1016 2 17.5703 2.23438 17.9219 2.58594L19.9141 4.57812ZM13.3906 20.125C13.5078 20.125 13.625 20.0469 13.625 19.8906V18.25H9.875C8.82031 18.25 8 17.4297 8 16.375V7.625H5.10938C4.95312 7.625 4.875 7.74219 4.875 7.85938V19.8906C4.875 20.0469 4.95312 20.125 5.10938 20.125H13.3906ZM18.3906 16.375C18.5078 16.375 18.625 16.2969 18.625 16.1406V8.25H15.1875C14.6406 8.25 14.25 7.85938 14.25 7.3125V3.875H10.1094C9.95312 3.875 9.875 3.99219 9.875 4.10938V16.1406C9.875 16.2969 9.95312 16.375 10.1094 16.375H18.3906ZM18.625 6.375V6.02344C18.625 5.94531 18.5859 5.90625 18.5469 5.86719L16.6328 3.95312C16.5938 3.91406 16.5547 3.875 16.4766 3.875H16.125V6.375H18.625Z" fill="#313237"/>
</svg>
