<svg width="24" height="24" viewBox="0 0 24 24" fill="none" xmlns="http://www.w3.org/2000/svg">
<path d="M15.6562 4.78125C16.5312 3.90625 17.9375 3.90625 18.8125 4.78125L19.2188 5.1875C20.0938 6.0625 20.0938 7.46875 19.2188 8.34375L13.0312 14.5312C12.7812 14.7812 12.4375 15 12.0625 15.0938L8.9375 16C8.6875 16.0625 8.40625 16 8.21875 15.7812C8 15.5938 7.9375 15.3125 8 15.0625L8.90625 11.9375C9 11.5625 9.21875 11.2188 9.46875 10.9688L15.6562 4.78125ZM17.75 5.84375C17.4688 5.5625 17 5.5625 16.7188 5.84375L15.7812 6.75L17.25 8.21875L18.1562 7.28125C18.4375 7 18.4375 6.53125 18.1562 6.25L17.75 5.84375ZM10.3438 12.3438L9.8125 14.1875L11.6562 13.6562C11.7812 13.625 11.875 13.5625 11.9688 13.4688L16.1875 9.25L14.75 7.8125L10.5312 12.0312C10.4375 12.125 10.375 12.2188 10.3438 12.3438ZM10.25 6C10.6562 6 11 6.34375 11 6.75C11 7.1875 10.6562 7.5 10.25 7.5H6.75C6.03125 7.5 5.5 8.0625 5.5 8.75V17.25C5.5 17.9688 6.03125 18.5 6.75 18.5H15.25C15.9375 18.5 16.5 17.9688 16.5 17.25V13.75C16.5 13.3438 16.8125 13 17.25 13C17.6562 13 18 13.3438 18 13.75V17.25C18 18.7812 16.75 20 15.25 20H6.75C5.21875 20 4 18.7812 4 17.25V8.75C4 7.25 5.21875 6 6.75 6H10.25Z" fill="#313237"/>
</svg>
